<svg height="512pt" viewBox="0 0 512 512" width="512pt" xmlns="http://www.w3.org/2000/svg"><path d="m451 301v196h-300v-196l30-30h243.898438zm0 0" fill="#ede9e8"/><path d="m451 301v196h-150v-226h123.898438zm0 0" fill="#dfd7d5"/><path d="m241 376h120v121h-120zm0 0" fill="#3aaaff"/><path d="m301 376h60v121h-60zm0 0" fill="#0095ff"/><path d="m451 15v286h-300v-286c0-8.402344 6.597656-15 15-15h270c8.402344 0 15 6.597656 15 15zm0 0" fill="#dfd7d5"/><path d="m451 301h-150v-301h135c8.402344 0 15 6.597656 15 15zm0 0" fill="#d2c5c2"/><path d="m179.199219 271.300781c1.199219-5.101562 1.800781-10.203125 1.800781-15.300781 0-41.398438-33.601562-75-75-75s-75 33.601562-75 75c0 5.097656.601562 10.199219 1.800781 15.300781-20.402343 19.796875-32.800781 46.5-32.800781 74.699219 0 57.898438 48.101562 105 106 105s105-47.101562 105-105c0-28.199219-11.398438-54.902344-31.800781-74.699219zm0 0" fill="#70da40"/><path d="m211 346c0 57.898438-47.101562 105-105 105v-270c41.398438 0 75 33.601562 75 75 0 5.097656-.601562 10.199219-1.800781 15.300781 20.402343 19.796875 31.800781 46.5 31.800781 74.699219zm0 0" fill="#56c225"/><path d="m146.5 356.5-25.5 25.800781v114.699219c0 8.402344-6.597656 15-15 15s-15-6.597656-15-15v-144.699219l-25.5-25.800781c-6-5.699219-6-15.296875 0-21 5.699219-6 15.300781-6 21 0l4.5 4.199219v-53.699219c0-8.402344 6.597656-15 15-15s15 6.597656 15 15v83.699219l4.5-4.199219c5.699219-6 15.300781-6 21 0 6 5.699219 6 15.300781 0 21zm0 0" fill="#725d57"/><path d="m146.5 356.5-25.5 25.800781v114.699219c0 8.402344-6.597656 15-15 15v-271c8.402344 0 15 6.597656 15 15v83.699219l4.5-4.199219c5.699219-6 15.300781-6 21 0 6 5.699219 6 15.300781 0 21zm0 0" fill="#53433f"/><path d="m181 211h60v60h-60zm0 0" fill="#3aaaff"/><path d="m271 211h60v60h-60zm0 0" fill="#3aaaff"/><path d="m361 211h60v60h-60zm0 0" fill="#0095ff"/><path d="m361 121h60v60h-60zm0 0" fill="#0095ff"/><g fill="#3aaaff"><path d="m271 121h60v60h-60zm0 0"/><path d="m181 121h60v60h-60zm0 0"/><path d="m181 30h60v61h-60zm0 0"/><path d="m271 30h60v61h-60zm0 0"/></g><path d="m361 30h60v61h-60zm0 0" fill="#0095ff"/><path d="m301 30h30v61h-30zm0 0" fill="#0095ff"/><path d="m301 121h30v60h-30zm0 0" fill="#0095ff"/><path d="m301 211h30v60h-30zm0 0" fill="#0095ff"/><path d="m512 497c0 8.402344-7.597656 15-16 15h-481c-8.402344 0-15-6.597656-15-15s6.597656-15 15-15h481c8.402344 0 16 6.597656 16 15zm0 0" fill="#90e36a"/><path d="m512 497c0 8.402344-7.597656 15-16 15h-195v-30h195c8.402344 0 16 6.597656 16 15zm0 0" fill="#56c225"/><path d="m391 376c0 8.402344-6.597656 15-15 15h-150c-8.402344 0-15-6.597656-15-15s6.597656-15 15-15h150c8.402344 0 15 6.597656 15 15zm0 0" fill="#68544f"/><path d="m376 391h-75v-30h75c8.402344 0 15 6.597656 15 15s-6.597656 15-15 15zm0 0" fill="#53433f"/></svg>