<svg height="1029pt" viewBox="0 -17 1029.1572 1029" width="1029pt" xmlns="http://www.w3.org/2000/svg"><path d="m902.457031 361.878906c0 199.816406-161.984375 361.800782-361.800781 361.800782s-361.800781-161.984376-361.800781-361.800782 161.984375-361.800781 361.800781-361.800781 361.800781 161.984375 361.800781 361.800781zm0 0" fill="#29abe2"/><path d="m659.355469 117.777344c-63.5-30.796875-136.5-35.699219-203.5-13.699219l-11.296875-34.398437c76-24.902344 158.699218-19.300782 230.699218 15.597656zm0 0" fill="#80caec"/><path d="m388.058594 137.578125-20.402344-29.898437c12.300781-8.402344 25.101562-15.800782 38.402344-22.300782l15.796875 32.601563c-11.699219 5.699219-23 12.199219-33.796875 19.597656zm0 0" fill="#80caec"/><path d="m467.355469 463.878906c35.5 34.300782 127.800781 42.398438 165.402343-10.199218 52.699219-73.699219 3.300782-154.402344 52.699219-224.699219 0 0-136.898437-50.902344-221.199219 59.699219-45.601562 59.5-32.402343 140.898437 3.097657 175.199218zm0 0" fill="#a7cc46"/><path d="m501.355469 562.378906c-7.199219-89.601562 8-179.601562 44.101562-262l33.101563 14.5c-33.703125 76.898438-47.902344 160.898438-41.203125 244.5zm0 0" fill="#8c6239"/><path d="m703.457031 886.578125h217.101563v108.5h-217.101563zm0 0" fill="#e6e6e6"/><path d="m160.757812 886.578125h217.097657v108.5h-217.097657zm0 0" fill="#e6e6e6"/><g fill="#d5e174"><path d="m992.957031 741.777344h36.199219v162.800781h-36.199219zm0 0"/><path d="m992.957031 940.777344h36.199219v36.203125h-36.199219zm0 0"/><path d="m127.65625 215.480469-33.800781-12.902344 10.601562-28 33.800781 12.800781zm0 0"/><path d="m29.457031 640.179688-6.199219-15.300782c-30.101562-73.699218-31-156-2.601562-230.300781l63.300781-165.800781 33.800781 12.902344-63.402343 165.800781c-25.199219 65.699219-24.296875 138.597656 2.300781 203.699219l6.300781 15.097656zm0 0"/></g><path d="m685.355469 777.980469h253.300781v144.699219h-253.300781zm0 0" fill="#a7cc46"/><path d="m904.65625 777.980469 66.402344-160c28.296875-69.402344 29.097656-147 2.398437-217l-106.5-279.402344c-9.800781-25.097656-38.101562-37.597656-63.300781-27.800781-.097656 0-.199219.101562-.398438.101562-24.5 9.398438-36.800781 36.898438-27.402343 61.5.203125.5.402343.898438.5 1.398438l64.203125 151.300781c3.398437 8.402344 5.597656 17.199219 6.398437 26.101563-5.398437-24.402344-29.601562-39.699219-54-34.300782-20.601562 4.601563-35.300781 22.800782-35.398437 43.898438v140.300781c0 17-4 33.800781-11.601563 49-28.101562 56.199219-42.699219 118.101563-42.699219 180.902344v64zm0 0" fill="#f2c09a"/><path d="m848.257812 560.878906c-10 0-18.101562-8.101562-18.101562-18.101562v-199c0-10 8.101562-18.097656 18.101562-18.097656s18.097657 8.097656 18.097657 18.097656v199c-.097657 10-8.199219 18.101562-18.097657 18.101562zm0 0" fill="#e9937c"/><path d="m142.65625 777.980469h253.300781v144.699219h-253.300781zm0 0" fill="#a7cc46"/><path d="m176.65625 777.980469-66.398438-160c-28.300781-69.402344-29.101562-147-2.402343-217l106.5-279.402344c9.800781-25.097656 38.101562-37.597656 63.300781-27.800781.101562 0 .199219.101562.402344.101562 24.5 9.398438 36.796875 36.898438 27.398437 61.5-.199219.5-.398437.898438-.5 1.398438l-64.300781 151.300781c-3.398438 8.402344-5.597656 17.199219-6.398438 26.101563 5.398438-24.402344 29.597657-39.699219 54-34.300782 20.597657 4.601563 35.300782 22.800782 35.398438 43.898438v140.300781c0 17 4 33.800781 11.601562 49 28.097657 56.199219 42.699219 118.101563 42.699219 180.902344v64zm0 0" fill="#f2c09a"/><path d="m233.15625 560.878906c10 0 18.101562-8.101562 18.101562-18.101562v-199c0-10-8.101562-18.097656-18.101562-18.097656s-18.097656 8.097656-18.097656 18.097656v199c0 10 8.097656 18.101562 18.097656 18.101562zm0 0" fill="#e9937c"/></svg>