<?xml version="1.0" encoding="iso-8859-1"?>
<!-- Generator: Adobe Illustrator 19.0.0, SVG Export Plug-In . SVG Version: 6.00 Build 0)  -->
<svg version="1.1" id="Capa_1" xmlns="http://www.w3.org/2000/svg" xmlns:xlink="http://www.w3.org/1999/xlink" x="0px" y="0px"
	 viewBox="0 0 512 512" style="enable-background:new 0 0 512 512;" xml:space="preserve">
<path style="fill:#73B1BB;" d="M442.689,494.891c-0.922,9.701-9.07,17.109-18.814,17.109H306.731
	c-9.745,0-17.891-7.409-18.814-17.109l-19.972-209.939c-0.504-5.3,1.25-10.566,4.832-14.505c3.582-3.938,8.658-6.184,13.983-6.184
	h157.089c5.324,0,10.401,2.245,13.983,6.184c3.582,3.938,5.336,9.206,4.832,14.505L442.689,494.891z"/>
<path style="fill:#6C9BAA;" d="M457.83,270.446c-3.582-3.938-8.658-6.184-13.983-6.184h-78.545V512h58.572
	c9.745,0,17.891-7.409,18.814-17.109l19.973-209.94C463.166,279.652,461.411,274.386,457.83,270.446z"/>
<path style="fill:#BCE7EC;" d="M306.2,168.389l-11.849-23.301c-0.749-1.473-0.637-3.235,0.29-4.601
	c0.927-1.367,2.525-2.12,4.169-1.968l28.489,2.644l35.388-13.343c1.393-0.525,2.954-0.333,4.178,0.513
	c1.224,0.847,1.955,2.24,1.955,3.729v43.134l19.162,12.947c1.297,0.876,2.05,2.358,1.993,3.921s-0.916,2.987-2.273,3.766
	l-30.452,17.482l-17.271,29.497c-0.666,1.138-1.795,1.93-3.092,2.168s-2.634-0.1-3.661-0.926l-26.017-20.924
	c-3.394-2.73-5.203-6.973-4.822-11.313L306.2,168.389z"/>
<path style="fill:#414B82;" d="M74.323,512c-2.456,0-4.952-0.363-7.421-1.128c-13.218-4.094-20.615-18.128-16.521-31.346
	L83.42,372.849l3.273-80.815c0.579-13.826,12.256-24.567,26.081-23.986c13.826,0.579,24.565,12.255,23.986,26.081l-3.409,84.07
	c-0.09,2.16-0.46,4.3-1.1,6.365L98.249,494.351C94.919,505.101,85.015,512,74.323,512z"/>
<path style="fill:#343E6B;" d="M220.271,511.997c-12.337,0-23.085-9.114-24.795-21.679l-16.067-118.032l-36.087-92.323
	c-5.038-12.888,1.326-27.42,14.214-32.458c12.89-5.04,27.419,1.326,32.458,14.214l37.175,95.104c0.723,1.848,1.223,3.776,1.49,5.742
	l16.47,120.991c1.867,13.711-7.736,26.339-21.447,28.206C222.536,511.921,221.397,511.997,220.271,511.997z"/>
<path style="fill:#64AFFF;" d="M201.88,292.034H86.692V135.823c0-16.815,13.631-30.446,30.446-30.446h54.295
	c16.815,0,30.446,13.631,30.446,30.446L201.88,292.034L201.88,292.034z"/>
<circle style="fill:#FFB69E;" cx="151.535" cy="45.074" r="45.074"/>
<path style="fill:#FFB69E;" d="M214.153,199.05c-3.609,0-7.188-0.974-10.342-2.873l-76.644-46.154
	c-9.483-5.71-12.541-18.028-6.831-27.512c5.71-9.483,18.026-12.541,27.512-6.831l69.068,41.591l74.011-22.001
	c10.613-3.155,21.77,2.89,24.925,13.501c3.155,10.611-2.89,21.77-13.501,24.925l-82.489,24.522
	C217.992,198.777,216.068,199.05,214.153,199.05z"/>
<path style="fill:#78BEFF;" d="M189.405,140.705l-41.556-25.024c-9.485-5.71-21.801-2.653-27.512,6.831
	c-5.71,9.483-2.653,21.801,6.831,27.512l42.852,25.805L189.405,140.705z"/>
<path style="fill:#2D889D;" d="M406.747,324.211h-81.863c-4.686,0-8.486-3.8-8.486-8.486c0-4.686,3.8-8.486,8.486-8.486h81.863
	c4.686,0,8.486,3.8,8.486,8.486C415.233,320.411,411.433,324.211,406.747,324.211z"/>
<g>
</g>
<g>
</g>
<g>
</g>
<g>
</g>
<g>
</g>
<g>
</g>
<g>
</g>
<g>
</g>
<g>
</g>
<g>
</g>
<g>
</g>
<g>
</g>
<g>
</g>
<g>
</g>
<g>
</g>
</svg>
