<?xml version="1.0" encoding="iso-8859-1"?>
<!-- Generator: Adobe Illustrator 19.0.0, SVG Export Plug-In . SVG Version: 6.00 Build 0)  -->
<svg version="1.1" id="Capa_1" xmlns="http://www.w3.org/2000/svg" xmlns:xlink="http://www.w3.org/1999/xlink" x="0px" y="0px"
	 viewBox="0 0 512 512" style="enable-background:new 0 0 512 512;" xml:space="preserve">
<path style="fill:#46738C;" d="M289.404,286.498c-8.101,0-16.201-3.083-22.368-9.25c-12.333-12.334-12.333-32.402,0-44.736
	c12.335-12.334,32.403-12.334,44.737,0c12.332,12.334,12.332,32.402,0,44.736l0,0C305.606,283.414,297.506,286.498,289.404,286.498z
	 M289.404,234.297c-5.274,0-10.546,2.007-14.561,6.022c-8.029,8.029-8.029,21.093,0,29.122c8.029,8.029,21.093,8.029,29.122,0
	c8.029-8.029,8.029-21.093,0-29.122C299.952,236.304,294.677,234.297,289.404,234.297z"/>
<path style="fill:#6C9BAA;" d="M426.843,295.055c-1.246-0.723-2.806-0.625-3.951,0.249l-17.548,13.393l-42.78-4.987l13.052-13.052
	c4.13-4.13,4.13-10.827,0-14.957l-47.051-47.051c-4.13-4.13-10.827-4.13-14.957,0l-63.475,63.474c-4.13,4.13-4.13,10.827,0,14.957
	l47.051,47.051c4.13,4.13,10.827,4.13,14.957,0l18.555-18.555l70.6-10.396l14.954,19.592c0.874,1.145,2.353,1.652,3.745,1.282
	s2.426-1.542,2.618-2.969l5.971-44.477C428.777,297.182,428.089,295.778,426.843,295.055z"/>
<path style="fill:#FFB69E;" d="M156.75,0c24.837,0,44.971,20.135,44.971,44.972c0,24.836-20.135,44.971-44.971,44.971
	s-44.971-20.135-44.971-44.971C111.778,20.135,131.913,0,156.75,0"/>
<path style="fill:#414B82;" d="M71.484,510.092c-3.052,0-6.157-0.54-9.181-1.681c-13.457-5.073-20.253-20.094-15.18-33.55
	l42.349-112.337l4.636-72.642c0.917-14.352,13.269-25.244,27.644-24.328c14.351,0.915,25.243,13.292,24.327,27.644l-4.883,76.526
	c-0.165,2.576-0.711,5.113-1.621,7.527L95.853,493.232C91.92,503.663,82.008,510.092,71.484,510.092z"/>
<path style="fill:#343E6B;" d="M190.103,510.092c-14.381,0-26.039-11.658-26.039-26.039V369.909l-11.533-81.155
	c-2.016-14.239,7.894-27.416,22.132-29.432c14.223-2.016,27.414,7.892,29.431,22.131l11.791,82.971
	c0.171,1.209,0.256,2.429,0.256,3.65v115.98C216.142,498.435,204.484,510.092,190.103,510.092z"/>
<path style="fill:#64AFFF;" d="M205.585,291.392H94.043V135.524c0-16.779,12.46-30.379,27.829-30.379h55.883
	c15.37,0,27.829,13.602,27.829,30.379v155.868H205.585z"/>
<path style="fill:#FFB69E;" d="M276.624,253.476c-2.287,0.583-4.707,0.801-7.19,0.591l-86.386-7.291
	c-7.241-0.611-13.694-4.806-17.194-11.175l-48.817-87.923c-5.77-10.503-1.932-23.696,8.572-29.466
	c10.5-5.776,23.696-1.932,29.466,8.572l43.216,77.727l74.792,6.313c11.942,1.008,20.805,11.505,19.797,23.447
	C292.082,243.73,285.33,251.256,276.624,253.476z"/>
<path style="fill:#78BEFF;" d="M144.288,196.758l38.882-19.444l-28.094-50.529c-5.77-10.503-18.965-14.348-29.466-8.572
	c-10.503,5.77-14.342,18.962-8.572,29.465L144.288,196.758z"/>
<path style="fill:#82BE50;" d="M414.364,429.007c1.834-3.275,1.154-2.121,3.164-5.396c10.827-18.34,25.001-30.156,43.745-39.404
	c3.894-1.922,7.509,3.463,3.61,6.375c-18.034,13.473-26.863,26.636-33.365,46.075c-4.466,13.12-7.367,32.148-5.826,51.234
	c0.076,0.876,0.286,3.172,0.464,4.033c1.553,6.417-3.289,16.063-12.945,17.382c-8.308,1.134-15.96-4.682-17.095-12.989
	C395.304,490.381,398.797,456.642,414.364,429.007z"/>
<path style="fill:#256E1B;" d="M400.962,422.935c13.396,20.706,18.479,37.566,22.227,63.998c0.945,6.662-3.69,12.829-10.351,13.774
	c-6.662,0.945-12.829-3.69-13.774-10.351c-0.231-1.627-0.051-3.204-0.062-3.034c0.474-7.607,1.632-20.245-1.379-37.226
	c-3.482-18.352-11.367-34.714-17.888-41.324c-2.548-2.584,0.798-6.671,3.83-4.705C389.262,407.761,396.708,417.067,400.962,422.935z
	"/>
<path style="fill:#C8462D;" d="M447.276,497.31c0.001-0.073,0.011-0.143,0.011-0.216c0-8.257-6.694-14.951-14.951-14.951
	c-5.285,0-9.917,2.749-12.577,6.887c-0.978-0.329-2.016-0.523-3.092-0.573c-2.577-10.193-11.807-17.737-22.801-17.737
	c-11.965,0-21.836,8.937-23.319,20.499c-2.078-0.656-4.288-1.012-6.583-1.012c-12.046,0-21.813,9.753-21.837,21.793h120.599
	C461.226,504.372,455.033,498.439,447.276,497.31z"/>
<g>
</g>
<g>
</g>
<g>
</g>
<g>
</g>
<g>
</g>
<g>
</g>
<g>
</g>
<g>
</g>
<g>
</g>
<g>
</g>
<g>
</g>
<g>
</g>
<g>
</g>
<g>
</g>
<g>
</g>
</svg>
